<svg xmlns="http://www.w3.org/2000/svg" width="183.062" height="108.335" viewBox="0 0 183.062 108.335">
  <path id="fast-delivery" d="M130.5,1.078c15.872,3.683,21.943,12.964,29.554,25.737H130.5ZM37.748,27.888c3.108,0,5.363,1.5,5.363,5.006a5.363,5.363,0,0,1-5.348,5.363H5.363a5.363,5.363,0,0,0,0,10.726H53.631a5.363,5.363,0,1,1,.021,10.726H5.363a5.363,5.363,0,0,0,0,10.726h11.8V86.525a5.363,5.363,0,0,0,5.363,5.363H33.305a20.563,20.563,0,0,0,40.293,0h54.455a20.563,20.563,0,0,0,40.293,0H177.7a5.363,5.363,0,0,0,5.363-5.363V54.346c0-15.736-16.6-16.781-16.613-16.8H125.139a5.363,5.363,0,0,1-5.363-5.363V0H22.525a5.363,5.363,0,0,0-5.363,5.363v11.8H10.726a5.363,5.363,0,1,0,0,10.726ZM155.153,80.824a9.833,9.833,0,1,1-16.785,6.953A9.835,9.835,0,0,1,155.153,80.824Zm-94.749,0A9.833,9.833,0,1,1,43.62,87.777,9.835,9.835,0,0,1,60.4,80.824Zm0,0" transform="translate(0)" fill="#daa520" fill-rule="evenodd"/>
</svg>
