<svg xmlns="http://www.w3.org/2000/svg" width="84.724" height="91" viewBox="0 0 84.724 91">
  <g id="food-serving" transform="translate(-40 -16)">
    <path id="Path_12" data-name="Path 12" d="M110.2,275.514l-1.179-2.595A1.572,1.572,0,0,0,107.6,272h-.9a1.569,1.569,0,0,0-1.06,2.726l7.208,6.607-2.644-5.817Z" transform="translate(-52.359 -205.793)" fill="#daa520"/>
    <path id="Path_13" data-name="Path 13" d="M191.584,272h-2.677a1.569,1.569,0,0,0-1.377.818l-8.522,15.623a1.569,1.569,0,0,1-1,.771l-6.276,1.569a1.568,1.568,0,0,1-.963-.065l-15.69-6.276a1.569,1.569,0,0,1-.821-.755l-5.409-10.817a1.56,1.56,0,0,0-1.4-.867h-1.032a1.569,1.569,0,0,0-1.428,2.218l5.688,12.51,22.832,19.789h10.4v-3.138a1.569,1.569,0,0,1,.46-1.109l1.3-1.3a4.677,4.677,0,0,0,1.379-3.328V287.69a1.571,1.571,0,0,1,.141-.649l5.828-12.822A1.569,1.569,0,0,0,191.584,272Z" transform="translate(-84.285 -205.793)" fill="#daa520"/>
    <path id="Path_14" data-name="Path 14" d="M272,464h15.69v3.138H272Z" transform="translate(-186.5 -360.138)" fill="#daa520"/>
    <path id="Path_15" data-name="Path 15" d="M149.034,93.81A29.844,29.844,0,0,0,119.224,64H109.81A29.844,29.844,0,0,0,80,93.81v1.569h69.034Z" transform="translate(-32.155 -38.586)" fill="#daa520"/>
    <path id="Path_16" data-name="Path 16" d="M41.569,243.138h81.586a1.571,1.571,0,0,0,1.569-1.569V240H40v1.569A1.571,1.571,0,0,0,41.569,243.138Z" transform="translate(0 -180.069)" fill="#daa520"/>
    <path id="Path_17" data-name="Path 17" d="M230.121,16H217.569a1.569,1.569,0,1,0,0,3.138h3.138v3.138h6.276V19.138h3.138a1.569,1.569,0,1,0,0-3.138Z" transform="translate(-141.483)" fill="#daa520"/>
  </g>
</svg>
