<svg id="house" xmlns="http://www.w3.org/2000/svg" width="149.907" height="143.573" viewBox="0 0 149.907 143.573">
  <path id="Path_110" data-name="Path 110" d="M426.96,71.35c.719.423,1.416.845,2.1,1.267V58.53a14.308,14.308,0,0,0,9.915-13.6V25.1a14.284,14.284,0,1,0-28.568,0V44.932a14.308,14.308,0,0,0,9.915,13.6v9.228C422.744,68.964,424.96,70.175,426.96,71.35Z" transform="translate(-290.243 -10.817)" fill="#daa520"/>
  <path id="Path_111" data-name="Path 111" d="M22.675,67.758V58.53a14.308,14.308,0,0,0,9.915-13.6V25.1a14.284,14.284,0,0,0-28.569,0V44.932a14.308,14.308,0,0,0,9.915,13.6V72.617c.682-.422,1.379-.844,2.1-1.267,2-1.175,4.216-2.386,6.64-3.592Z" transform="translate(-2.844 -10.817)" fill="#daa520"/>
  <path id="Path_112" data-name="Path 112" d="M175.838,57.385V49.418a4.369,4.369,0,1,1,8.738,0v7.967a129.441,129.441,0,0,1,19.831,2.149V42.914a4.937,4.937,0,0,0,5.2-8.348L183.169,14.735a4.937,4.937,0,0,0-5.925,0L150.8,34.566a4.935,4.935,0,0,0,5.2,8.344V59.533a129.485,129.485,0,0,1,19.831-2.149Z" transform="translate(-105.253 -12.889)" fill="#daa520"/>
  <path id="Path_113" data-name="Path 113" d="M125.72,224.422A151.62,151.62,0,0,1,179.688,205.4c-11.738-6.291-29.914-13.02-53.968-13.02-23.372,0-41.349,6.269-53.936,13.025A151.612,151.612,0,0,1,125.72,224.422Z" transform="translate(-50.767 -139.218)" fill="#daa520"/>
  <path id="Path_114" data-name="Path 114" d="M351.4,260.317a148.626,148.626,0,0,0-66.49,17.553A126.466,126.466,0,0,1,310.1,300.663a108.276,108.276,0,0,1,18.031,30.176h18.9a4.369,4.369,0,0,0,4.369-4.369Z" transform="translate(-201.49 -187.266)" fill="#daa520"/>
  <path id="Path_115" data-name="Path 115" d="M0,281.389A73.936,73.936,0,0,1,40.474,296.18,74.214,74.214,0,0,1,65.85,330.84h51.345C99.524,290.111,52.686,261.805,0,260.317Z" transform="translate(0 -187.266)" fill="#daa520"/>
  <path id="Path_116" data-name="Path 116" d="M56.523,402.894A65.924,65.924,0,0,0,0,362.2v36.323a4.369,4.369,0,0,0,4.369,4.369H56.523Z" transform="translate(0 -259.32)" fill="#daa520"/>
</svg>
