<svg id="dancing" xmlns="http://www.w3.org/2000/svg" width="148.422" height="143.573" viewBox="0 0 148.422 143.573">
  <circle id="Ellipse_7" data-name="Ellipse 7" cx="11.176" cy="11.176" r="11.176" transform="translate(32.894 7.784)" fill="#daa520"/>
  <path id="Path_79" data-name="Path 79" d="M58.546,52.289H34.279L17.354,45.861,10.479,26.388a5.393,5.393,0,1,0-10.17,3.59L8.017,51.809a5.392,5.392,0,0,0,3.17,3.246L29.727,62.1v61.746l-19.47,1.516a6.471,6.471,0,0,0,1,12.9l25.444-1.981a6.471,6.471,0,0,0,5.969-6.452V103.969h2.794v51.725a6.471,6.471,0,1,0,12.942,0c0-.044-.053-92.586-.053-92.618h.189a2.167,2.167,0,0,1,2.175,1.939v39.617a5.393,5.393,0,1,0,10.785,0V64.987a12.892,12.892,0,0,0-12.961-12.7Z" transform="translate(0 -18.591)" fill="#daa520"/>
  <path id="Path_80" data-name="Path 80" d="M303.479,22.661a5.035,5.035,0,0,0-7.1-.555L264.719,49.173h-4.687a13.913,13.913,0,0,1-18.9-16L229.8,11.081a5.034,5.034,0,1,0-8.958,4.6L241.1,55.154l-6.459,51a2.8,2.8,0,0,0,2.756,3.278H241.3v36.273a6.041,6.041,0,1,0,12.082,0V109.436h2.609v12.128a6.041,6.041,0,0,0,4.917,5.936c20.894,3.92,20.285,3.934,21.343,3.934a6.042,6.042,0,0,0,1.117-11.978l-15.294-2.9v-7.123h3.909a2.8,2.8,0,0,0,2.756-3.278l-6.819-47.1s29.638-24.751,35-29.3a5.034,5.034,0,0,0,.555-7.1Z" transform="translate(-156.264 -8.343)" fill="#daa520"/>
  <circle id="Ellipse_8" data-name="Ellipse 8" cx="10.434" cy="10.434" r="10.434" transform="matrix(0.987, -0.16, 0.16, 0.987, 86.444, 19.362)" fill="#daa520"/>
</svg>
