<svg xmlns="http://www.w3.org/2000/svg" width="94.143" height="91" viewBox="0 0 94.143 91">
  <g id="horse-riding" transform="translate(0.002 -8.138)">
    <g id="Group_3" data-name="Group 3" transform="translate(-0.002 44.375)">
      <path id="Path_33" data-name="Path 33" d="M69.287,215.4l4.38-9.963a13.086,13.086,0,0,1-2.373-.345c-4.572-1.147-7.99-4.743-10.362-8.624H56.416a7.1,7.1,0,0,1-.9,5.878l-8.95,13.648a7.145,7.145,0,1,1-11.948-7.84l4.4-6.712-5.067-2.337a7.08,7.08,0,0,1-3.016-2.638H27.976a12.381,12.381,0,0,0-8.087,3.046c-3.044-2.1-14.24-8.775-17.864,3.547-3.792,12.886,4.935,15.077-1.7,20.918a.98.98,0,0,0,.962,1.664c3.146-1.064,7.36-4.36,8.87-14.168,1.017-6.624,4.278-8.95,7.051-8.744a12.325,12.325,0,0,0,1.921,15.029l-4.771,7.292-.253.384a3.185,3.185,0,0,0-.514,1.918l1.148,20.867a2.307,2.307,0,0,0,4.573.288l2.3-12.525,3.678,12.753a2.308,2.308,0,0,0,4.523-.743l-.838-18.683,5.439-7.877h17.56l3.633,7.266-2.939,19.031A2.473,2.473,0,0,0,57.418,249l6.039-15.63,2.992,15.289a2.363,2.363,0,0,0,4.677-.588Z" transform="translate(0.002 -195.819)" fill="#daa520"/>
    </g>
    <path id="Path_34" data-name="Path 34" d="M234.9,20.04a5.951,5.951,0,1,0-5.952-5.951A5.95,5.95,0,0,0,234.9,20.04Z" transform="translate(-184.748)" fill="#daa520"/>
    <g id="Group_4" data-name="Group 4" transform="translate(32.967 14.498)">
      <path id="Path_35" data-name="Path 35" d="M230.388,59.742l-10.847-9.1.925-8.592a.883.883,0,0,0-1.488-.733L214,46.083l-3.546,7.939-5.621,8.432c1.615,4.074,3.96,7.907,6.562,8.556,1.327.331,2.994-.186,4.879-1.408L218.4,64.77l5.37,2.4c-5.015,5.513-9.441,7.85-13.142,6.91-5.631-1.408-9.049-10.362-10.352-15.393a2.594,2.594,0,0,0-.009-1.637,2.654,2.654,0,0,0-3.4-1.583l-6.988,2.549L187.509,52.8l0-.007a4.455,4.455,0,0,0-2.646-5.77l-.49-.178a4.456,4.456,0,0,0-5.59,2.378c-1.71,3.828-4.544,10.124-7.667,16.858a3.977,3.977,0,0,0,1.946,5.278l8.406,3.876-6.416,9.786A3.978,3.978,0,1,0,181.7,89.39l8.951-13.647c.637-.967,1.613-4.294-1.456-5.69-2-.908-6.947-3.216-6.947-3.216l2.618-7c1.308,2.886,1.742,4.147,3.317,4.147,1.5,0,4.077-1.158,9.408-3.134,1.507,5.153,5.167,14.522,12.254,16.3a9.807,9.807,0,0,0,2.392.3c4.532,0,9.483-3.1,14.758-9.176a4.244,4.244,0,0,0,4.13-2.531l.424-.946A4.308,4.308,0,0,0,230.388,59.742Z" transform="translate(-170.751 -41.077)" fill="#daa520"/>
    </g>
  </g>
</svg>
