<svg id="cooking_1_" data-name="cooking (1)" xmlns="http://www.w3.org/2000/svg" width="141.141" height="143.573" viewBox="0 0 141.141 143.573">
  <path id="Path_3" data-name="Path 3" d="M16.734,32.2c7.3,0,9.734-4.867,9.734-4.867L21.6,41.935H45.935l-4.867-14.6S43.5,32.2,50.8,32.2c4.867,0,9.734-4.867,9.734-12.167S53.236,3,33.768,3,7,12.734,7,20.034,11.867,32.2,16.734,32.2Z" transform="translate(2.734 -0.567)" fill="#daa520"/>
  <path id="Path_4" data-name="Path 4" d="M139.495,51H3v9.734a14.6,14.6,0,0,0,14.6,14.6h73a14.6,14.6,0,0,0,14.6-14.6V55.867h13.861a7.952,7.952,0,0,0,5.577,3.1l14.43,1.312A4.646,4.646,0,1,0,139.495,51Z" transform="translate(-2.999 68.239)" fill="#daa520"/>
  <path id="Path_5" data-name="Path 5" d="M31.989,57.074A17.035,17.035,0,0,0,56.08,81.165L80.169,57.074A21.9,21.9,0,1,0,43.205,45.858ZM62.962,32.985a4.866,4.866,0,1,1,0,6.882,4.866,4.866,0,0,1,0-6.882Z" transform="translate(31.403 23.352)" fill="#daa520"/>
  <path id="Path_6" data-name="Path 6" d="M60.334,6.867V2A24.362,24.362,0,0,0,36,26.334h4.867A19.49,19.49,0,0,1,60.334,6.867Z" transform="translate(44.304 -2)" fill="#daa520"/>
  <path id="Path_7" data-name="Path 7" d="M12.734,31.6H17.6A14.615,14.615,0,0,0,3,17v4.867A9.744,9.744,0,0,1,12.734,31.6Z" transform="translate(-2.999 19.502)" fill="#daa520"/>
  <path id="Path_8" data-name="Path 8" d="M26,36.034h4.867A12.181,12.181,0,0,1,43.034,23.867V19A17.053,17.053,0,0,0,26,36.034Z" transform="translate(29.97 22.369)" fill="#daa520"/>
  <path id="Path_9" data-name="Path 9" d="M48,2h4.867V6.867H48Z" transform="translate(61.506 -2)" fill="#daa520"/>
  <path id="Path_10" data-name="Path 10" d="M42,46h4.867v4.867H42Z" transform="translate(52.905 61.072)" fill="#daa520"/>
  <path id="Path_11" data-name="Path 11" d="M5.852,69.178a9.735,9.735,0,0,0,13.766,0,9.587,9.587,0,0,0,1.662-2.317,9.554,9.554,0,0,0,7.945-4.047L40.266,76.06,54.032,62.294,40.785,51.254a9.554,9.554,0,0,0,4.047-7.945,9.586,9.586,0,0,0,2.317-1.662A9.734,9.734,0,0,0,33.382,27.88a9.735,9.735,0,0,0-13.766,0A9.586,9.586,0,0,0,17.954,30.2a9.713,9.713,0,0,0-9.785,9.785,9.587,9.587,0,0,0-2.317,1.662,9.735,9.735,0,0,0,0,13.766,9.733,9.733,0,0,0,0,13.768Z" transform="translate(-3 31.012)" fill="#daa520"/>
</svg>
