<svg xmlns="http://www.w3.org/2000/svg" width="76.572" height="86" viewBox="0 0 76.572 86">
  <g id="tea" transform="translate(-28.066 -0.002)">
    <path id="Path_36" data-name="Path 36" d="M153.105,48.638a6.256,6.256,0,0,1-1.781,3.258,2.519,2.519,0,1,0,3.563,3.563c.335-.332,3.258-3.356,3.258-6.82s-2.923-6.488-3.25-6.813a6.264,6.264,0,0,1-1.789-3.265,6.264,6.264,0,0,1,1.789-3.265,2.519,2.519,0,0,0-3.57-3.555c-.335.332-3.258,3.356-3.258,6.82s2.923,6.488,3.25,6.813A6.263,6.263,0,0,1,153.105,48.638Z" transform="translate(-99.844 -25.793)" fill="#daa520"/>
    <path id="Path_37" data-name="Path 37" d="M243.105,17.806a6.256,6.256,0,0,1-1.781,3.258,2.519,2.519,0,0,0,3.563,3.563c.335-.332,3.258-3.356,3.258-6.82s-2.923-6.488-3.25-6.813a6.265,6.265,0,0,1-1.789-3.265A6.742,6.742,0,0,1,244.894,4.3,2.519,2.519,0,0,0,241.324.74c-.335.332-3.258,3.524-3.258,6.988s2.923,6.488,3.25,6.813A6.263,6.263,0,0,1,243.105,17.806Z" transform="translate(-174.726 0)" fill="#daa520"/>
    <path id="Path_38" data-name="Path 38" d="M178.069,317.075h5.037v-5.01a12.573,12.573,0,0,0-2.52-3.858,12.33,12.33,0,0,0-2.52,3.873Z" transform="translate(-124.805 -256.436)" fill="#daa520"/>
    <path id="Path_39" data-name="Path 39" d="M95.526,246.036c14.165-1.483,21.341-10.59,21.045-19.152-.219-6.346-4.431-10.779-10.243-10.779a14.376,14.376,0,0,0-4.242.687,9.971,9.971,0,0,1,.172-1.491,2.519,2.519,0,0,0-1.781-4.3H70.243v11.575c1.936,2.045,5.039,5.762,5.039,8.581v7.559a2.518,2.518,0,0,1-2.52,2.52H62.684a2.518,2.518,0,0,1-2.52-2.52v-7.559c0-2.819,3.1-6.536,5.039-8.581V211H45.047a2.55,2.55,0,0,0-2.414,1.447,2.325,2.325,0,0,0,.463,2.638c.347.7.487,3.615.6,5.957.551,11.461,1.7,35.479,29.07,35.479C84.511,256.519,91.409,251.952,95.526,246.036Zm16.008-18.977c.186,5.384-3.884,11.4-13.057,13.465,2.518-6.244,3.05-13.081,3.305-18.133a9.181,9.181,0,0,1,4.545-1.248C110.021,221.144,111.441,224.33,111.534,227.059Z" transform="translate(-11.942 -175.556)" fill="#daa520"/>
    <path id="Path_40" data-name="Path 40" d="M30.586,487.039H91.054a2.52,2.52,0,1,0,0-5.039H30.586a2.52,2.52,0,1,0,0,5.039Z" transform="translate(0 -401.037)" fill="#daa520"/>
  </g>
</svg>
