<svg xmlns="http://www.w3.org/2000/svg" width="86" height="86" viewBox="0 0 86 86">
  <g id="wedding-arch" transform="translate(-3 -3)">
    <path id="Path_41" data-name="Path 41" d="M28.966,14.342a2.969,2.969,0,0,0,2.966-2.966V10.22a4.38,4.38,0,0,1-5.931,0v1.157A2.969,2.969,0,0,0,28.966,14.342Z" transform="translate(11.103 3.486)" fill="#daa520"/>
    <path id="Path_42" data-name="Path 42" d="M25.966,11.931h1.157a4.38,4.38,0,0,1,0-5.931H25.966a2.966,2.966,0,0,0,0,5.931Z" transform="translate(9.655 1.448)" fill="#daa520"/>
    <path id="Path_43" data-name="Path 43" d="M31.931,7.122V5.966a2.966,2.966,0,1,0-5.931,0V7.122a4.38,4.38,0,0,1,5.931,0Z" transform="translate(11.103 0)" fill="#daa520"/>
    <path id="Path_44" data-name="Path 44" d="M21,15.086a4.429,4.429,0,0,1,6.257,6.257h1.157a2.963,2.963,0,0,0,2.544-4.485A5.93,5.93,0,0,1,25.6,12.3a5.9,5.9,0,0,1-2.435-1.22A2.98,2.98,0,0,0,21,13.929Z" transform="translate(8.69 3.898)" fill="#daa520"/>
    <ellipse id="Ellipse_1" data-name="Ellipse 1" cx="1.147" cy="1.72" rx="1.147" ry="1.72" transform="translate(38.547 8.258)" fill="#daa520"/>
    <path id="Path_45" data-name="Path 45" d="M8,28.377a2.966,2.966,0,1,0,5.931,0V27.22A4.38,4.38,0,0,1,8,27.22Z" transform="translate(2.414 11.692)" fill="#daa520"/>
    <path id="Path_46" data-name="Path 46" d="M15.835,51.047,11.979,31.77A5.919,5.919,0,0,1,10,32.111V54.3a8.485,8.485,0,0,0,5.835-3.253Z" transform="translate(3.379 13.889)" fill="#daa520"/>
    <path id="Path_47" data-name="Path 47" d="M13.377,28.931a2.966,2.966,0,1,0,0-5.931H12.22a4.38,4.38,0,0,1,0,5.931Z" transform="translate(4.451 9.655)" fill="#daa520"/>
    <circle id="Ellipse_2" data-name="Ellipse 2" cx="1.147" cy="1.147" r="1.147" transform="translate(12.173 34.631)" fill="#daa520"/>
    <path id="Path_48" data-name="Path 48" d="M11.966,48.82a11.7,11.7,0,0,1-1.483.212v1.09a7.834,7.834,0,0,1-1.321,4.361c-.049.074-.11.139-.162.214v6.253h2.966Z" transform="translate(2.897 22.12)" fill="#daa520"/>
    <path id="Path_49" data-name="Path 49" d="M60.244,25.5a5.884,5.884,0,0,1,2.742-1.149A31.081,31.081,0,0,0,34.174,5H33.64a5.915,5.915,0,0,1,1.821,3.019A28.391,28.391,0,0,1,60.244,25.5Z" transform="translate(14.792 0.966)" fill="#daa520"/>
    <ellipse id="Ellipse_3" data-name="Ellipse 3" cx="1.147" cy="1.72" rx="1.147" ry="1.72" transform="translate(17.907 23.165)" fill="#daa520"/>
    <path id="Path_50" data-name="Path 50" d="M43,11.611v3.413a21.1,21.1,0,0,0,6.161,14.881,5.942,5.942,0,0,1,4.37-4.223c.031-.136.087-.264.128-.4A25.3,25.3,0,0,0,43,11.611Z" transform="translate(19.31 4.157)" fill="#daa520"/>
    <path id="Path_51" data-name="Path 51" d="M55.966,54.7c-.052-.073-.113-.138-.162-.214a7.838,7.838,0,0,1-1.321-4.362v-1.09A11.193,11.193,0,0,1,53,48.819v12.13h2.966Z" transform="translate(24.138 22.12)" fill="#daa520"/>
    <path id="Path_52" data-name="Path 52" d="M52,22.966v1.157a4.38,4.38,0,0,1,5.931,0V22.966a2.966,2.966,0,1,0-5.931,0Z" transform="translate(23.655 8.207)" fill="#daa520"/>
    <path id="Path_53" data-name="Path 53" d="M37,9.281v6.87A29.606,29.606,0,0,0,56.863,44.335l.722-3.612a5.9,5.9,0,0,1-1.158-2.353A5.947,5.947,0,0,1,52.545,35.4a24.027,24.027,0,0,1-9.614-19.248v-5A25.158,25.158,0,0,0,37,9.281Z" transform="translate(16.414 3.032)" fill="#daa520"/>
    <path id="Path_54" data-name="Path 54" d="M51.966,23a2.966,2.966,0,1,0,0,5.931h1.157a4.38,4.38,0,0,1,0-5.931Z" transform="translate(22.207 9.655)" fill="#daa520"/>
    <path id="Path_55" data-name="Path 55" d="M55.9,54.3V32.111a5.9,5.9,0,0,1-1.978-.341L50.066,51.047A8.478,8.478,0,0,0,55.9,54.3Z" transform="translate(22.722 13.889)" fill="#daa520"/>
    <path id="Path_56" data-name="Path 56" d="M60.9,64.081h.866L58.117,30.046A5.983,5.983,0,0,1,56,32.141V59.184a4.9,4.9,0,0,0,4.9,4.9Z" transform="translate(25.586 13.057)" fill="#daa520"/>
    <path id="Path_57" data-name="Path 57" d="M57.931,28.377V27.22a4.38,4.38,0,0,1-5.931,0v1.157a2.966,2.966,0,1,0,5.931,0Z" transform="translate(23.655 11.692)" fill="#daa520"/>
    <path id="Path_58" data-name="Path 58" d="M57.377,28.931a2.966,2.966,0,1,0,0-5.931H56.22a4.38,4.38,0,0,1,0,5.931Z" transform="translate(25.692 9.655)" fill="#daa520"/>
    <circle id="Ellipse_4" data-name="Ellipse 4" cx="1.147" cy="1.147" r="1.147" transform="translate(77.533 34.631)" fill="#daa520"/>
    <path id="Path_59" data-name="Path 59" d="M31.377,6H30.22a4.38,4.38,0,0,1,0,5.931h1.157a2.966,2.966,0,1,0,0-5.931Z" transform="translate(13.141 1.448)" fill="#daa520"/>
    <path id="Path_60" data-name="Path 60" d="M11.121,18.108a5.873,5.873,0,0,1,2.246-1.078,5.791,5.791,0,0,1,1.028-2.159l-5.87-.979.488-2.925,5.729.955a5.883,5.883,0,0,1-1.52-3.886,20.933,20.933,0,0,0-9.884,3.332l.592.988a13.188,13.188,0,0,0,7.191,5.753Z" transform="translate(0.163 2.431)" fill="#daa520"/>
    <path id="Path_61" data-name="Path 61" d="M7.966,23a2.966,2.966,0,1,0,0,5.931H9.122a4.38,4.38,0,0,1,0-5.931Z" transform="translate(0.966 9.655)" fill="#daa520"/>
    <path id="Path_62" data-name="Path 62" d="M11.966,16A2.969,2.969,0,0,0,9,18.966c0,.068.021.135.027.2a5.829,5.829,0,0,1,1.456-.2,5.874,5.874,0,0,1,1.5.215c0-.073-.022-.141-.022-.215A4.42,4.42,0,0,1,13.122,16Z" transform="translate(2.897 6.276)" fill="#daa520"/>
    <path id="Path_63" data-name="Path 63" d="M12.714,7.476a5.975,5.975,0,0,1,2.08-2.129A13.6,13.6,0,0,0,7.122,3H6V4.133a12.61,12.61,0,0,0,.767,4.294A23.684,23.684,0,0,1,12.714,7.476Z" transform="translate(1.448 0)" fill="#daa520"/>
    <path id="Path_64" data-name="Path 64" d="M4.979,64.081a4.9,4.9,0,0,0,4.9-4.9V32.141a5.979,5.979,0,0,1-2.117-2.094L4.113,64.081Z" transform="translate(0.537 13.057)" fill="#daa520"/>
    <path id="Path_65" data-name="Path 65" d="M37.724,17.139A5.906,5.906,0,0,1,35.3,21.9,32.651,32.651,0,0,1,14,45.168l.581,2.9A35.951,35.951,0,0,0,39.207,14.045v-.4a5.939,5.939,0,0,1-1.867,1.4A5.937,5.937,0,0,1,37.724,17.139Z" transform="translate(5.31 5.137)" fill="#daa520"/>
    <path id="Path_66" data-name="Path 66" d="M58.208,47.382A32.543,32.543,0,0,1,35.966,16.267V9.045c-.074,0-.15-.006-.224-.009A5.936,5.936,0,0,1,33,12.62v3.649A35.951,35.951,0,0,0,57.626,50.3Z" transform="translate(14.483 2.914)" fill="#daa520"/>
    <path id="Path_67" data-name="Path 67" d="M47,59H67.759v2.966H47Z" transform="translate(21.241 27.034)" fill="#daa520"/>
    <path id="Path_68" data-name="Path 68" d="M3,59H23.76v2.966H3Z" transform="translate(0 27.034)" fill="#daa520"/>
    <path id="Path_69" data-name="Path 69" d="M10.966,20A2.969,2.969,0,0,0,8,22.966v1.157a4.38,4.38,0,0,1,5.931,0V22.966A2.969,2.969,0,0,0,10.966,20Z" transform="translate(2.414 8.207)" fill="#daa520"/>
    <path id="Path_70" data-name="Path 70" d="M16.22,20.692h1.157a2.94,2.94,0,0,0,1.812-.641,5.952,5.952,0,0,1-1.9-1.484,4.412,4.412,0,0,1-1.071,2.125Z" transform="translate(6.382 7.515)" fill="#daa520"/>
    <path id="Path_71" data-name="Path 71" d="M17.958,17.121a5.9,5.9,0,0,1,.221-1.323,5.932,5.932,0,0,1-3.846-2.751A2.969,2.969,0,0,0,12,15.942V17.1a4.384,4.384,0,0,1,5.958.022Z" transform="translate(4.345 4.851)" fill="#daa520"/>
    <path id="Path_72" data-name="Path 72" d="M13.861,21.356c.015.058.042.113.055.172a5.913,5.913,0,0,1,2.659,1.4,2.936,2.936,0,0,0,.458-1.555V20.22a4.412,4.412,0,0,1-2.966,1.157C14,21.377,13.931,21.359,13.861,21.356Z" transform="translate(5.243 8.313)" fill="#daa520"/>
    <path id="Path_73" data-name="Path 73" d="M20.966,14a2.966,2.966,0,1,0,0,5.931h1.157a4.38,4.38,0,0,1,0-5.931Z" transform="translate(7.241 5.31)" fill="#daa520"/>
    <path id="Path_74" data-name="Path 74" d="M31.018,22.946a5.871,5.871,0,0,1-8.324-1.893A5.926,5.926,0,0,1,20.209,22.3,5.882,5.882,0,0,1,18.6,25.178a5.872,5.872,0,0,1-4.325,7.507,5.916,5.916,0,0,1-1.158,2.353l.725,3.622A29.7,29.7,0,0,0,31.018,22.946Z" transform="translate(4.884 8.715)" fill="#daa520"/>
    <circle id="Ellipse_5" data-name="Ellipse 5" cx="1.147" cy="1.147" r="1.147" transform="translate(31.667 20.871)" fill="#daa520"/>
    <path id="Path_75" data-name="Path 75" d="M21,19.377a2.966,2.966,0,1,0,5.931,0V18.22a4.38,4.38,0,0,1-5.931,0Z" transform="translate(8.69 7.348)" fill="#daa520"/>
    <path id="Path_76" data-name="Path 76" d="M14.966,11.931h1.157a4.38,4.38,0,0,1,0-5.931H14.966a2.966,2.966,0,0,0,0,5.931Z" transform="translate(4.345 1.448)" fill="#daa520"/>
    <path id="Path_77" data-name="Path 77" d="M17.966,16.379a3.014,3.014,0,0,0,.669-.1,5.891,5.891,0,0,1,2.45-1.231,5.969,5.969,0,0,1,3.2-3.989A5.925,5.925,0,0,1,23.9,8.966a5.86,5.86,0,0,1,.455-2.237A2.96,2.96,0,0,0,22.414,6H21.257A4.429,4.429,0,0,1,15,12.257v1.157a2.969,2.969,0,0,0,2.966,2.966Z" transform="translate(5.793 1.448)" fill="#daa520"/>
    <path id="Path_78" data-name="Path 78" d="M20.931,7.122V5.966a2.966,2.966,0,1,0-5.931,0V7.122a4.38,4.38,0,0,1,5.931,0Z" transform="translate(5.793 0)" fill="#daa520"/>
    <ellipse id="Ellipse_6" data-name="Ellipse 6" cx="1.147" cy="1.72" rx="1.147" ry="1.72" transform="translate(22.493 8.258)" fill="#daa520"/>
  </g>
</svg>
